<?xml version="1.0" encoding="UTF-8"?>
<svg width="512" height="512" viewBox="0 0 512 512" fill="none" xmlns="http://www.w3.org/2000/svg">
    <defs>
        <linearGradient id="shieldFill" x1="256" y1="48" x2="256" y2="464" gradientUnits="userSpaceOnUse">
            <stop offset="0%" stop-color="#0E7490"/>
            <stop offset="100%" stop-color="#0A8491"/>
        </linearGradient>
        <linearGradient id="arrowFill" x1="256" y1="140" x2="256" y2="340" gradientUnits="userSpaceOnUse">
            <stop offset="0%" stop-color="#FFFFFF"/>
            <stop offset="100%" stop-color="#E0F2FE"/>
        </linearGradient>
    </defs>

    <!-- Professional Minimalist Protection Shield -->
    <path d="M256 48C176 48 112 80 112 168C112 308 256 464 256 464C256 464 400 308 400 168C400 80 336 48 256 48Z" 
          fill="url(#shieldFill)" />

    <!-- Inner Clean Dark Core -->
    <path d="M256 76C192 76 138 104 138 174C138 290 256 424 256 424C256 424 374 290 374 174C374 104 320 76 256 76Z" 
          fill="#0A0E1A" />

    <!-- Directional Evacuation Arrow / Compass Needle -->
    <path d="M256 136L318 276L256 244L194 276L256 136Z" 
          fill="url(#arrowFill)" />

    <!-- Safety Core Beacon Dot -->
    <circle cx="256" cy="324" r="10" fill="#0A8491" />
</svg>